<?xml version="1.0" encoding="UTF-8" standalone="no"?>
<!DOCTYPE svg PUBLIC "-//W3C//DTD SVG 1.1//EN" "http://www.w3.org/Graphics/SVG/1.1/DTD/svg11.dtd">
<svg width="100%" height="100%" viewBox="0 0 1890 1890" version="1.1" xmlns="http://www.w3.org/2000/svg" xmlns:xlink="http://www.w3.org/1999/xlink" xml:space="preserve" xmlns:serif="http://www.serif.com/" style="fill-rule:evenodd;clip-rule:evenodd;stroke-linejoin:round;stroke-miterlimit:2;">
    <g id="Artboard1" transform="matrix(1.000489,0,0,1,0,0)">
        <rect x="0" y="0" width="1888.841" height="1889.302" style="fill:none;"/>
        <g transform="matrix(0.542338,0,0,0.728515,-285.648174,-545.848104)">
            <path d="M1615.065,831.499L1615.065,1477.648C1615.065,1523.036 1565.59,1559.886 1504.651,1559.886L637.112,1559.886C576.173,1559.886 526.698,1523.036 526.698,1477.648L526.698,831.499C526.698,786.111 576.173,749.262 637.112,749.262L1504.651,749.262C1565.59,749.262 1615.065,786.111 1615.065,831.499Z" style="fill:rgb(73,145,198);"/>
        </g>
        <g transform="matrix(0.542338,0,0,0.728515,363.179792,-545.848104)">
            <path d="M1615.065,830.324L1615.065,1478.823C1615.065,1523.563 1566.297,1559.886 1506.228,1559.886L635.535,1559.886C575.466,1559.886 526.698,1523.563 526.698,1478.823L526.698,830.324C526.698,785.585 575.466,749.262 635.535,749.262L1506.228,749.262C1566.297,749.262 1615.065,785.585 1615.065,830.324Z" style="fill:rgb(73,145,198);"/>
        </g>
        <g transform="matrix(0.542338,0,0,0.728515,1012.007758,-545.848104)">
            <path d="M1615.065,830.324L1615.065,1478.823C1615.065,1523.563 1566.297,1559.886 1506.228,1559.886L635.535,1559.886C575.466,1559.886 526.698,1523.563 526.698,1478.823L526.698,830.324C526.698,785.585 575.466,749.262 635.535,749.262L1506.228,749.262C1566.297,749.262 1615.065,785.585 1615.065,830.324Z" style="fill:rgb(4,49,90);"/>
        </g>
        <g transform="matrix(0.542338,0,0,0.728515,-285.648174,103.758196)">
            <path d="M1615.065,830.324L1615.065,1478.823C1615.065,1523.563 1566.297,1559.886 1506.228,1559.886L635.535,1559.886C575.466,1559.886 526.698,1523.563 526.698,1478.823L526.698,830.324C526.698,785.585 575.466,749.262 635.535,749.262L1506.228,749.262C1566.297,749.262 1615.065,785.585 1615.065,830.324Z" style="fill:rgb(120,187,226);"/>
        </g>
        <g transform="matrix(0.542338,0,0,0.728515,363.179792,103.758196)">
            <path d="M1615.065,830.324L1615.065,1478.823C1615.065,1523.563 1566.297,1559.886 1506.228,1559.886L635.535,1559.886C575.466,1559.886 526.698,1523.563 526.698,1478.823L526.698,830.324C526.698,785.585 575.466,749.262 635.535,749.262L1506.228,749.262C1566.297,749.262 1615.065,785.585 1615.065,830.324Z" style="fill:rgb(4,49,90);"/>
        </g>
        <g transform="matrix(0.542338,0,0,0.728515,1012.007758,103.758196)">
            <path d="M1615.065,830.324L1615.065,1478.823C1615.065,1523.563 1566.297,1559.886 1506.228,1559.886L635.535,1559.886C575.466,1559.886 526.698,1523.563 526.698,1478.823L526.698,830.324C526.698,785.585 575.466,749.262 635.535,749.262L1506.228,749.262C1566.297,749.262 1615.065,785.585 1615.065,830.324Z" style="fill:rgb(141,200,233);"/>
        </g>
        <g transform="matrix(0.542338,0,0,0.728515,-285.648174,752.903127)">
            <path d="M1615.065,830.324L1615.065,1478.823C1615.065,1523.563 1566.297,1559.886 1506.228,1559.886L635.535,1559.886C575.466,1559.886 526.698,1523.563 526.698,1478.823L526.698,830.324C526.698,785.585 575.466,749.262 635.535,749.262L1506.228,749.262C1566.297,749.262 1615.065,785.585 1615.065,830.324Z" style="fill:rgb(4,49,90);"/>
        </g>
        <g transform="matrix(0.542338,0,0,0.728515,363.179792,752.903127)">
            <path d="M1615.065,830.324L1615.065,1478.823C1615.065,1523.563 1566.297,1559.886 1506.228,1559.886L635.535,1559.886C575.466,1559.886 526.698,1523.563 526.698,1478.823L526.698,830.324C526.698,785.585 575.466,749.262 635.535,749.262L1506.228,749.262C1566.297,749.262 1615.065,785.585 1615.065,830.324Z" style="fill:rgb(73,145,198);"/>
        </g>
        <g transform="matrix(0.542338,0,0,0.728515,1012.007758,752.903127)">
            <path d="M1615.065,830.324L1615.065,1478.823C1615.065,1523.563 1566.297,1559.886 1506.228,1559.886L635.535,1559.886C575.466,1559.886 526.698,1523.563 526.698,1478.823L526.698,830.324C526.698,785.585 575.466,749.262 635.535,749.262L1506.228,749.262C1566.297,749.262 1615.065,785.585 1615.065,830.324Z" style="fill:rgb(120,187,226);"/>
        </g>
    </g>
</svg>
